<svg width="28" height="28" viewBox="0 0 28 28" fill="none" xmlns="http://www.w3.org/2000/svg">
<path d="M16.59 25.235C15.2133 25.235 13.265 24.2667 11.725 19.635L10.885 17.115L8.36501 16.275C3.74501 14.735 2.77667 12.7867 2.77667 11.41C2.77667 10.045 3.74501 8.08502 8.36501 6.53336L18.27 3.23169C20.7433 2.40336 22.8083 2.64836 24.08 3.90836C25.3517 5.16836 25.5967 7.24502 24.7683 9.71835L21.4667 19.6234C19.915 24.2667 17.9667 25.235 16.59 25.235ZM8.91334 8.20169C5.67001 9.28669 4.51501 10.57 4.51501 11.41C4.51501 12.25 5.67001 13.5334 8.91334 14.6067L11.8533 15.5867C12.11 15.6684 12.32 15.8784 12.4017 16.135L13.3817 19.075C14.455 22.3184 15.75 23.4734 16.59 23.4734C17.43 23.4734 18.7133 22.3184 19.7983 19.075L23.1 9.17002C23.695 7.37336 23.59 5.90336 22.8317 5.14502C22.0733 4.38669 20.6033 4.29336 18.8183 4.88836L8.91334 8.20169Z" fill="#00B2FF"/>
<path d="M11.795 16.8C11.5733 16.8 11.3517 16.7184 11.1767 16.5434C10.8383 16.205 10.8383 15.645 11.1767 15.3067L15.3533 11.1184C15.6917 10.78 16.2517 10.78 16.59 11.1184C16.9283 11.4567 16.9283 12.0167 16.59 12.355L12.4133 16.5434C12.25 16.7184 12.0167 16.8 11.795 16.8Z" fill="#00B2FF"/>
</svg>
